# xmcd
#
# Track frame offsets:
#	150
#	21825
#	38672
#	51837
#	67702
#	83455
#	97885
#	116750
#	132832
#	146215
#	158187
#	173637
#
# Disc length: 2560 seconds
#
# Revision: 1
# Processed by: cddbd v1.5.2PL0 Copyright (c) Steve Scherf et al.
# Submitted via: audiograbber 1.83.01
#
DISCID=9109fe0c
DTITLE=Bent O - Country 6
DYEAR=1994
DGENRE=Country
TTITLE0=A Good Hearted Woman
TTITLE1=Min Rose
TTITLE2=Some Broken Hearts Never Mend
TTITLE3=Forever And Ever Amen
TTITLE4=Would You Lay With Me
TTITLE5=Only Sixteen
TTITLE6=Blanket On The Ground
TTITLE7=If I Said You Had A Beautiful Body
TTITLE8=Take Me Home Country Roads
TTITLE9=Walk On By
TTITLE10=Rose Garden
TTITLE11=Send Me The Pillow
EXTD=
EXTT0=
EXTT1=
EXTT2=
EXTT3=
EXTT4=
EXTT5=
EXTT6=
EXTT7=
EXTT8=
EXTT9=
EXTT10=
EXTT11=
PLAYORDER=
